<svg xmlns="http://www.w3.org/2000/svg" fill="none" viewBox="0 0 136 141"><g filter="url(#a)"><path fill="url(#b)" d="M66.76 133.087c-3.586-2.071-7.107-4.262-10.772-6.182-5-2.618-5.303-9.474-.342-12.167 3.007-1.632 5.227-4.046 6.097-7.479 1.225-4.82.03-8.997-3.719-12.218-3.674-3.151-7.986-3.964-12.514-2.102-4.57 1.875-7.035 5.443-7.443 10.39-.043.503-.017 1.011-.031 1.514-.142 5.365-5.457 8.441-10.138 5.781-7.522-4.275-14.989-8.637-22.476-12.972a8.53 8.53 0 0 1-1.134-.779c-4.326-3.57-5.463-9.264-2.68-14.168a1637.985 1637.985 0 0 1 12.772-22.12c2.877-4.896 9.117-4.772 11.974.156 4.56 7.87 15.133 8.563 20.369 1.272 2.757-3.838 3.09-8.052 1.017-12.273-2.072-4.22-5.612-6.416-10.325-6.727-1.272-.083-2.627-.082-3.78-.54-3.792-1.494-5.371-5.766-3.334-9.397 4.317-7.707 8.69-15.393 13.274-22.94 2.963-4.882 8.86-6.362 14.044-3.947.624.292 1.233.622 1.83.967 6.895 3.976 13.832 7.883 20.656 11.98 2.165 1.302 4.4.063 4.325-2.519-.207-7.077 4.302-13.33 10.834-15.534 6.787-2.294 14.146-.06 18.387 5.583 4.269 5.675 4.525 13.42.295 19.174-1.401 1.904-3.348 3.594-5.397 4.783-2.073 1.2-2.148 3.742.057 4.969 7.116 3.959 14.137 8.09 21.178 12.18 4.703 2.733 6.93 7.144 5.933 11.968a13.885 13.885 0 0 1-1.513 3.963c-4.041 7.125-8.243 14.16-12.236 21.313-2.975 5.33-9.765 5.089-12.407.033-2.375-4.552-7.333-6.784-12.311-6.017-4.805.739-8.797 4.468-9.883 9.232-1.094 4.802.876 9.805 5.044 12.668 2.025 1.39 4.315 2.21 6.757 2.023 5.934-.454 9.342 5.687 6.16 10.91-4.188 6.878-8.084 13.929-12.12 20.898-3.562 6.154-9.908 7.86-16.054 4.329-3.468-1.994-6.933-4.003-10.398-6.004l.005-.001Z"/></g><defs><linearGradient id="b" x1="-4" x2="184.025" y1="21.722" y2="154.778" gradientUnits="userSpaceOnUse"><stop offset=".184" stop-color="#FA242D"/><stop offset=".958" stop-color="#EF5B3C"/></linearGradient><filter id="a" width="135.86" height="144.827" x=".092" y=".192" color-interpolation-filters="sRGB" filterUnits="userSpaceOnUse"><feFlood flood-opacity="0" result="BackgroundImageFix"/><feBlend in="SourceGraphic" in2="BackgroundImageFix" result="shape"/><feColorMatrix in="SourceAlpha" result="hardAlpha" values="0 0 0 0 0 0 0 0 0 0 0 0 0 0 0 0 0 0 127 0"/><feOffset dy="4.11"/><feGaussianBlur stdDeviation="2.055"/><feComposite in2="hardAlpha" k2="-1" k3="1" operator="arithmetic"/><feColorMatrix values="0 0 0 0 0.178792 0 0 0 0 0.178792 0 0 0 0 0.178792 0 0 0 0.3 0"/><feBlend in2="shape" result="effect1_innerShadow_617_924"/></filter></defs></svg>